<svg xmlns="http://www.w3.org/2000/svg" version="1.1" xmlns:xlink="http://www.w3.org/1999/xlink" xmlns:svgjs="http://svgjs.dev/svgjs" width="2000" height="1196" viewBox="0 0 2000 1196"><g transform="matrix(1,0,0,1,-1.2121212121212466,0.02177263735325141)"><svg viewBox="0 0 396 237" data-background-color="#ffffff" preserveAspectRatio="xMidYMid meet" height="1196" width="2000" xmlns="http://www.w3.org/2000/svg" xmlns:xlink="http://www.w3.org/1999/xlink"><g id="tight-bounds" transform="matrix(1,0,0,1,0.2400000000000091,-0.004314477468824407)"><svg viewBox="0 0 395.52 237.00862895493765" height="237.00862895493765" width="395.52"><g><svg viewBox="0 0 395.52 237.00862895493765" height="237.00862895493765" width="395.52"><g><svg viewBox="0 0 395.52 237.00862895493765" height="237.00862895493765" width="395.52"><g id="textblocktransform"><svg viewBox="0 0 395.52 237.00862895493765" height="237.00862895493765" width="395.52" id="textblock"><g><svg viewBox="0 0 395.52 237.00862895493765" height="237.00862895493765" width="395.52"><g transform="matrix(1,0,0,1,0,0)"><svg width="395.52" viewBox="-12.5 -31.25 52.15 31.25" height="237.00862895493765" data-palette-color="#915eff"><path d="M21.55-4.95L19.6 0 9.6 0 22.75-31.25 37.45-31.25 39.65 0 29.6 0 29.4-4.95 21.55-4.95ZM24.65-12.9L28.65-12.9 28.65-21.65 28.15-21.65 24.65-12.9ZM8.95-2.4L8-0.2-12.5-2.4 8.95-2.4ZM11-7.25L10.05-5.05-10.45-7.25 11-7.25ZM13-12.05L12.1-9.85-8.4-12.05 13-12.05ZM15.05-16.85L14.1-14.65-6.35-16.85 15.05-16.85ZM17.05-21.65L16.15-19.45-4.3-21.65 17.05-21.65ZM21.1-31.25L20.2-29.1-0.2-31.25 21.1-31.25ZM19.05-26.45L18.15-24.3-2.25-26.45 19.05-26.45ZM-0.2-31.25L20.2-29.1 21.1-31.25-0.2-31.25Z" opacity="1" transform="matrix(1,0,0,1,0,0)" fill="#915eff" class="wordmark-text-0" data-fill-palette-color="primary" id="text-0"></path></svg></g></svg></g></svg></g></svg></g><g></g></svg></g><defs></defs></svg><rect width="395.52" height="237.00862895493765" fill="none" stroke="none" visibility="hidden"></rect></g></svg></g></svg>