<svg id="Layer_1" data-name="Layer 1" xmlns="http://www.w3.org/2000/svg" xmlns:xlink="http://www.w3.org/1999/xlink" viewBox="0 0 635.35 635.36"><defs><style>.cls-1{fill:none;}.cls-2{clip-path:url(#clip-path);}.cls-3{fill:#ef8e39;}.cls-4{fill:#520291;}</style><clipPath id="clip-path" transform="translate(-232.41 -185.48)"><rect class="cls-1" width="1080" height="1080"/></clipPath></defs><title>Icon full color</title><g class="cls-2"><path class="cls-3" d="M476.92,794.11a10.43,10.43,0,0,1-12,15.19A315.85,315.85,0,0,1,431.56,798c-1-.38-2-.79-3-1.25C313.36,749,232.41,635.56,232.41,503.15c0-175.44,142.24-317.67,317.68-317.67l4.81,0a6.46,6.46,0,0,1,3.62,11.7l-.24.18c-4.17,3.06-3.38,9.66,1.52,11.32,21.44,7.3,71.73,8.74,77.78,15.3,26,28.25-43.45,60-73.54,89.62-76.74,75.33-125.4,163.28-135,264.22-7.39,77.72,10.15,149.4,47.86,216.26" transform="translate(-232.41 -185.48)"/><path class="cls-4" d="M867.77,503.15c0,175.44-142.24,317.68-317.68,317.68h-.45a59.61,59.61,0,0,1-57-43c-15.3-51.66-21-103.55-16.39-155.71a20.89,20.89,0,0,1,20.82-19h24.25c24.5,0,49,.13,73.54-.08,10-.09,18.7-8,25.33-23.62,16.95-39.75,33.58-80.16,50.32-120.37a47.67,47.67,0,0,0,2.5-8.16c1.34-6.09.38-11.46-2.62-13.5a10.49,10.49,0,0,0-6.17-1.84q-53.9-.11-107.76-.07a10,10,0,0,1-8.34-15.53c38.88-59.55,91-108.75,156.25-149.21a57.32,57.32,0,0,1,70.69,8.15,317,317,0,0,1,92.69,224.28" transform="translate(-232.41 -185.48)"/></g></svg>